<mxfile host="app.diagrams.net" modified="2022-05-30T04:33:33.261Z" agent="5.0 (Windows NT 6.1; Win64; x64) AppleWebKit/537.36 (KHTML, like Gecko) Chrome/101.0.4951.64 Safari/537.36 Edg/101.0.1210.53" etag="S69CclTzU9E1JcR_nKQU" version="18.1.3" type="github">
  <diagram id="x6YIwiCo0DhBEQLWqY0_" name="Page-2">
    <mxGraphModel dx="1422" dy="834" grid="1" gridSize="10" guides="1" tooltips="1" connect="1" arrows="1" fold="1" page="1" pageScale="1" pageWidth="850" pageHeight="1100" math="0" shadow="0">
      <root>
        <mxCell id="0" />
        <mxCell id="1" parent="0" />
        <mxCell id="HX41A1APYuWKKBgyzjFO-12" style="edgeStyle=orthogonalEdgeStyle;rounded=0;orthogonalLoop=1;jettySize=auto;html=1;exitX=1;exitY=0.25;exitDx=0;exitDy=0;entryX=0;entryY=0.25;entryDx=0;entryDy=0;" edge="1" parent="1" source="HX41A1APYuWKKBgyzjFO-1" target="HX41A1APYuWKKBgyzjFO-2">
          <mxGeometry relative="1" as="geometry" />
        </mxCell>
        <mxCell id="HX41A1APYuWKKBgyzjFO-152" style="edgeStyle=orthogonalEdgeStyle;rounded=0;orthogonalLoop=1;jettySize=auto;html=1;exitX=0.5;exitY=1;exitDx=0;exitDy=0;entryX=0.5;entryY=0;entryDx=0;entryDy=0;" edge="1" parent="1" source="HX41A1APYuWKKBgyzjFO-1" target="HX41A1APYuWKKBgyzjFO-151">
          <mxGeometry relative="1" as="geometry" />
        </mxCell>
        <mxCell id="HX41A1APYuWKKBgyzjFO-1" value="View/Edit" style="rounded=1;whiteSpace=wrap;html=1;absoluteArcSize=1;arcSize=14;strokeWidth=2;" vertex="1" parent="1">
          <mxGeometry x="50" y="190" width="100" height="50" as="geometry" />
        </mxCell>
        <mxCell id="HX41A1APYuWKKBgyzjFO-13" style="edgeStyle=orthogonalEdgeStyle;rounded=0;orthogonalLoop=1;jettySize=auto;html=1;exitX=1;exitY=0.25;exitDx=0;exitDy=0;entryX=0;entryY=0.25;entryDx=0;entryDy=0;" edge="1" parent="1" source="HX41A1APYuWKKBgyzjFO-2" target="HX41A1APYuWKKBgyzjFO-3">
          <mxGeometry relative="1" as="geometry" />
        </mxCell>
        <mxCell id="HX41A1APYuWKKBgyzjFO-22" style="edgeStyle=orthogonalEdgeStyle;rounded=0;orthogonalLoop=1;jettySize=auto;html=1;exitX=0;exitY=0.75;exitDx=0;exitDy=0;entryX=1;entryY=0.75;entryDx=0;entryDy=0;" edge="1" parent="1" source="HX41A1APYuWKKBgyzjFO-2" target="HX41A1APYuWKKBgyzjFO-1">
          <mxGeometry relative="1" as="geometry" />
        </mxCell>
        <mxCell id="HX41A1APYuWKKBgyzjFO-2" value="Get" style="rounded=1;whiteSpace=wrap;html=1;absoluteArcSize=1;arcSize=14;strokeWidth=2;" vertex="1" parent="1">
          <mxGeometry x="220" y="190" width="100" height="50" as="geometry" />
        </mxCell>
        <mxCell id="HX41A1APYuWKKBgyzjFO-14" style="edgeStyle=orthogonalEdgeStyle;rounded=0;orthogonalLoop=1;jettySize=auto;html=1;exitX=1;exitY=0.25;exitDx=0;exitDy=0;entryX=0;entryY=0.25;entryDx=0;entryDy=0;" edge="1" parent="1" source="HX41A1APYuWKKBgyzjFO-3" target="HX41A1APYuWKKBgyzjFO-7">
          <mxGeometry relative="1" as="geometry" />
        </mxCell>
        <mxCell id="HX41A1APYuWKKBgyzjFO-21" style="edgeStyle=orthogonalEdgeStyle;rounded=0;orthogonalLoop=1;jettySize=auto;html=1;exitX=0;exitY=0.75;exitDx=0;exitDy=0;entryX=1;entryY=0.75;entryDx=0;entryDy=0;" edge="1" parent="1" source="HX41A1APYuWKKBgyzjFO-3" target="HX41A1APYuWKKBgyzjFO-2">
          <mxGeometry relative="1" as="geometry" />
        </mxCell>
        <mxCell id="HX41A1APYuWKKBgyzjFO-3" value="Get" style="rounded=1;whiteSpace=wrap;html=1;absoluteArcSize=1;arcSize=14;strokeWidth=2;" vertex="1" parent="1">
          <mxGeometry x="390" y="190" width="100" height="50" as="geometry" />
        </mxCell>
        <mxCell id="HX41A1APYuWKKBgyzjFO-4" value="React" style="text;html=1;strokeColor=none;fillColor=none;align=center;verticalAlign=middle;whiteSpace=wrap;rounded=0;" vertex="1" parent="1">
          <mxGeometry x="70" y="130" width="60" height="30" as="geometry" />
        </mxCell>
        <mxCell id="HX41A1APYuWKKBgyzjFO-5" value="Controller" style="text;html=1;strokeColor=none;fillColor=none;align=center;verticalAlign=middle;whiteSpace=wrap;rounded=0;" vertex="1" parent="1">
          <mxGeometry x="240" y="130" width="60" height="30" as="geometry" />
        </mxCell>
        <mxCell id="HX41A1APYuWKKBgyzjFO-6" value="Application service" style="text;html=1;strokeColor=none;fillColor=none;align=center;verticalAlign=middle;whiteSpace=wrap;rounded=0;" vertex="1" parent="1">
          <mxGeometry x="410" y="130" width="60" height="30" as="geometry" />
        </mxCell>
        <mxCell id="HX41A1APYuWKKBgyzjFO-15" style="edgeStyle=orthogonalEdgeStyle;rounded=0;orthogonalLoop=1;jettySize=auto;html=1;exitX=1;exitY=0.25;exitDx=0;exitDy=0;entryX=0;entryY=0.25;entryDx=0;entryDy=0;" edge="1" parent="1" source="HX41A1APYuWKKBgyzjFO-7" target="HX41A1APYuWKKBgyzjFO-9">
          <mxGeometry relative="1" as="geometry" />
        </mxCell>
        <mxCell id="HX41A1APYuWKKBgyzjFO-20" style="edgeStyle=orthogonalEdgeStyle;rounded=0;orthogonalLoop=1;jettySize=auto;html=1;exitX=0;exitY=0.75;exitDx=0;exitDy=0;entryX=1;entryY=0.75;entryDx=0;entryDy=0;" edge="1" parent="1" source="HX41A1APYuWKKBgyzjFO-7" target="HX41A1APYuWKKBgyzjFO-3">
          <mxGeometry relative="1" as="geometry" />
        </mxCell>
        <mxCell id="HX41A1APYuWKKBgyzjFO-7" value="Get" style="rounded=1;whiteSpace=wrap;html=1;absoluteArcSize=1;arcSize=14;strokeWidth=2;" vertex="1" parent="1">
          <mxGeometry x="560" y="190" width="100" height="50" as="geometry" />
        </mxCell>
        <mxCell id="HX41A1APYuWKKBgyzjFO-8" value="Domain service" style="text;html=1;strokeColor=none;fillColor=none;align=center;verticalAlign=middle;whiteSpace=wrap;rounded=0;" vertex="1" parent="1">
          <mxGeometry x="580" y="130" width="60" height="30" as="geometry" />
        </mxCell>
        <mxCell id="HX41A1APYuWKKBgyzjFO-18" style="edgeStyle=orthogonalEdgeStyle;rounded=0;orthogonalLoop=1;jettySize=auto;html=1;exitX=0;exitY=0.75;exitDx=0;exitDy=0;entryX=1;entryY=0.75;entryDx=0;entryDy=0;" edge="1" parent="1" source="HX41A1APYuWKKBgyzjFO-9" target="HX41A1APYuWKKBgyzjFO-7">
          <mxGeometry relative="1" as="geometry" />
        </mxCell>
        <mxCell id="HX41A1APYuWKKBgyzjFO-9" value="Get" style="rounded=1;whiteSpace=wrap;html=1;absoluteArcSize=1;arcSize=14;strokeWidth=2;" vertex="1" parent="1">
          <mxGeometry x="730" y="190" width="100" height="50" as="geometry" />
        </mxCell>
        <mxCell id="HX41A1APYuWKKBgyzjFO-10" value="Repository" style="text;html=1;strokeColor=none;fillColor=none;align=center;verticalAlign=middle;whiteSpace=wrap;rounded=0;" vertex="1" parent="1">
          <mxGeometry x="750" y="130" width="60" height="30" as="geometry" />
        </mxCell>
        <mxCell id="HX41A1APYuWKKBgyzjFO-11" value="Database" style="text;html=1;strokeColor=none;fillColor=none;align=center;verticalAlign=middle;whiteSpace=wrap;rounded=0;" vertex="1" parent="1">
          <mxGeometry x="920" y="130" width="60" height="30" as="geometry" />
        </mxCell>
        <mxCell id="HX41A1APYuWKKBgyzjFO-16" style="edgeStyle=orthogonalEdgeStyle;rounded=0;orthogonalLoop=1;jettySize=auto;html=1;exitX=1;exitY=0.25;exitDx=0;exitDy=0;" edge="1" parent="1" source="HX41A1APYuWKKBgyzjFO-9">
          <mxGeometry relative="1" as="geometry">
            <mxPoint x="830" y="230" as="targetPoint" />
            <Array as="points">
              <mxPoint x="950" y="203" />
              <mxPoint x="950" y="230" />
            </Array>
          </mxGeometry>
        </mxCell>
        <mxCell id="HX41A1APYuWKKBgyzjFO-17" value="Data rows" style="text;html=1;strokeColor=none;fillColor=none;align=center;verticalAlign=middle;whiteSpace=wrap;rounded=0;" vertex="1" parent="1">
          <mxGeometry x="850" y="230" width="60" height="30" as="geometry" />
        </mxCell>
        <mxCell id="HX41A1APYuWKKBgyzjFO-19" value="Entity" style="text;html=1;strokeColor=none;fillColor=none;align=center;verticalAlign=middle;whiteSpace=wrap;rounded=0;" vertex="1" parent="1">
          <mxGeometry x="660" y="230" width="60" height="30" as="geometry" />
        </mxCell>
        <mxCell id="HX41A1APYuWKKBgyzjFO-23" value="Domain model" style="text;html=1;strokeColor=none;fillColor=none;align=center;verticalAlign=middle;whiteSpace=wrap;rounded=0;" vertex="1" parent="1">
          <mxGeometry x="490" y="230" width="60" height="30" as="geometry" />
        </mxCell>
        <mxCell id="HX41A1APYuWKKBgyzjFO-24" value="DTO" style="text;html=1;strokeColor=none;fillColor=none;align=center;verticalAlign=middle;whiteSpace=wrap;rounded=0;" vertex="1" parent="1">
          <mxGeometry x="320" y="230" width="60" height="30" as="geometry" />
        </mxCell>
        <mxCell id="HX41A1APYuWKKBgyzjFO-25" value="JSON" style="text;html=1;strokeColor=none;fillColor=none;align=center;verticalAlign=middle;whiteSpace=wrap;rounded=0;" vertex="1" parent="1">
          <mxGeometry x="140" y="230" width="60" height="30" as="geometry" />
        </mxCell>
        <mxCell id="HX41A1APYuWKKBgyzjFO-37" style="edgeStyle=orthogonalEdgeStyle;rounded=0;orthogonalLoop=1;jettySize=auto;html=1;exitX=0.5;exitY=1;exitDx=0;exitDy=0;entryX=0.5;entryY=0;entryDx=0;entryDy=0;" edge="1" parent="1" source="HX41A1APYuWKKBgyzjFO-26" target="HX41A1APYuWKKBgyzjFO-36">
          <mxGeometry relative="1" as="geometry" />
        </mxCell>
        <mxCell id="HX41A1APYuWKKBgyzjFO-26" value="Render Layout" style="rounded=1;whiteSpace=wrap;html=1;absoluteArcSize=1;arcSize=14;strokeWidth=2;" vertex="1" parent="1">
          <mxGeometry x="50" y="350" width="100" height="50" as="geometry" />
        </mxCell>
        <mxCell id="HX41A1APYuWKKBgyzjFO-27" value="Id" style="text;html=1;strokeColor=none;fillColor=none;align=center;verticalAlign=middle;whiteSpace=wrap;rounded=0;" vertex="1" parent="1">
          <mxGeometry x="660" y="180" width="60" height="30" as="geometry" />
        </mxCell>
        <mxCell id="HX41A1APYuWKKBgyzjFO-28" value="SQL" style="text;html=1;strokeColor=none;fillColor=none;align=center;verticalAlign=middle;whiteSpace=wrap;rounded=0;" vertex="1" parent="1">
          <mxGeometry x="830" y="180" width="60" height="30" as="geometry" />
        </mxCell>
        <mxCell id="HX41A1APYuWKKBgyzjFO-30" value="Id" style="text;html=1;strokeColor=none;fillColor=none;align=center;verticalAlign=middle;whiteSpace=wrap;rounded=0;" vertex="1" parent="1">
          <mxGeometry x="480" y="180" width="60" height="30" as="geometry" />
        </mxCell>
        <mxCell id="HX41A1APYuWKKBgyzjFO-31" value="Id, Identity" style="text;html=1;strokeColor=none;fillColor=none;align=center;verticalAlign=middle;whiteSpace=wrap;rounded=0;" vertex="1" parent="1">
          <mxGeometry x="320" y="180" width="60" height="30" as="geometry" />
        </mxCell>
        <mxCell id="HX41A1APYuWKKBgyzjFO-32" value="Authorize" style="text;html=1;strokeColor=none;fillColor=none;align=center;verticalAlign=middle;whiteSpace=wrap;rounded=0;" vertex="1" parent="1">
          <mxGeometry x="380" y="170" width="60" height="30" as="geometry" />
        </mxCell>
        <mxCell id="HX41A1APYuWKKBgyzjFO-33" value="Authenticate" style="text;html=1;strokeColor=none;fillColor=none;align=center;verticalAlign=middle;whiteSpace=wrap;rounded=0;" vertex="1" parent="1">
          <mxGeometry x="160" y="130" width="60" height="30" as="geometry" />
        </mxCell>
        <mxCell id="HX41A1APYuWKKBgyzjFO-58" style="edgeStyle=orthogonalEdgeStyle;rounded=0;orthogonalLoop=1;jettySize=auto;html=1;exitX=1;exitY=0.5;exitDx=0;exitDy=0;entryX=0;entryY=0.5;entryDx=0;entryDy=0;" edge="1" parent="1" source="HX41A1APYuWKKBgyzjFO-36" target="HX41A1APYuWKKBgyzjFO-38">
          <mxGeometry relative="1" as="geometry" />
        </mxCell>
        <mxCell id="HX41A1APYuWKKBgyzjFO-36" value="Modify complex property" style="rounded=1;whiteSpace=wrap;html=1;absoluteArcSize=1;arcSize=14;strokeWidth=2;" vertex="1" parent="1">
          <mxGeometry x="50" y="430" width="100" height="50" as="geometry" />
        </mxCell>
        <mxCell id="HX41A1APYuWKKBgyzjFO-51" style="edgeStyle=orthogonalEdgeStyle;rounded=0;orthogonalLoop=1;jettySize=auto;html=1;exitX=1;exitY=0.5;exitDx=0;exitDy=0;entryX=0;entryY=0.5;entryDx=0;entryDy=0;" edge="1" parent="1" source="HX41A1APYuWKKBgyzjFO-38" target="HX41A1APYuWKKBgyzjFO-50">
          <mxGeometry relative="1" as="geometry" />
        </mxCell>
        <mxCell id="HX41A1APYuWKKBgyzjFO-38" value="Property event" style="rounded=1;whiteSpace=wrap;html=1;absoluteArcSize=1;arcSize=14;strokeWidth=2;" vertex="1" parent="1">
          <mxGeometry x="220" y="430" width="100" height="50" as="geometry" />
        </mxCell>
        <mxCell id="HX41A1APYuWKKBgyzjFO-57" style="edgeStyle=orthogonalEdgeStyle;rounded=0;orthogonalLoop=1;jettySize=auto;html=1;exitX=0;exitY=0.5;exitDx=0;exitDy=0;entryX=1;entryY=0.5;entryDx=0;entryDy=0;" edge="1" parent="1" source="HX41A1APYuWKKBgyzjFO-40" target="HX41A1APYuWKKBgyzjFO-56">
          <mxGeometry relative="1" as="geometry" />
        </mxCell>
        <mxCell id="HX41A1APYuWKKBgyzjFO-40" value="Modify model with validation" style="rounded=1;whiteSpace=wrap;html=1;absoluteArcSize=1;arcSize=14;strokeWidth=2;" vertex="1" parent="1">
          <mxGeometry x="390" y="520" width="100" height="50" as="geometry" />
        </mxCell>
        <mxCell id="HX41A1APYuWKKBgyzjFO-47" style="edgeStyle=orthogonalEdgeStyle;rounded=0;orthogonalLoop=1;jettySize=auto;html=1;exitX=0.5;exitY=1;exitDx=0;exitDy=0;entryX=0.5;entryY=0;entryDx=0;entryDy=0;" edge="1" parent="1" source="HX41A1APYuWKKBgyzjFO-44" target="HX41A1APYuWKKBgyzjFO-46">
          <mxGeometry relative="1" as="geometry" />
        </mxCell>
        <mxCell id="HX41A1APYuWKKBgyzjFO-44" value="Render layout with updated model" style="rounded=1;whiteSpace=wrap;html=1;absoluteArcSize=1;arcSize=14;strokeWidth=2;" vertex="1" parent="1">
          <mxGeometry x="50" y="520" width="100" height="50" as="geometry" />
        </mxCell>
        <mxCell id="HX41A1APYuWKKBgyzjFO-81" style="edgeStyle=orthogonalEdgeStyle;rounded=0;orthogonalLoop=1;jettySize=auto;html=1;exitX=1;exitY=0.5;exitDx=0;exitDy=0;entryX=0;entryY=0.5;entryDx=0;entryDy=0;" edge="1" parent="1" source="HX41A1APYuWKKBgyzjFO-46" target="HX41A1APYuWKKBgyzjFO-48">
          <mxGeometry relative="1" as="geometry" />
        </mxCell>
        <mxCell id="HX41A1APYuWKKBgyzjFO-46" value="Save changes" style="rounded=1;whiteSpace=wrap;html=1;absoluteArcSize=1;arcSize=14;strokeWidth=2;" vertex="1" parent="1">
          <mxGeometry x="50" y="605" width="100" height="50" as="geometry" />
        </mxCell>
        <mxCell id="HX41A1APYuWKKBgyzjFO-80" style="edgeStyle=orthogonalEdgeStyle;rounded=0;orthogonalLoop=1;jettySize=auto;html=1;exitX=1;exitY=0.5;exitDx=0;exitDy=0;" edge="1" parent="1" source="HX41A1APYuWKKBgyzjFO-48" target="HX41A1APYuWKKBgyzjFO-49">
          <mxGeometry relative="1" as="geometry" />
        </mxCell>
        <mxCell id="HX41A1APYuWKKBgyzjFO-48" value="Update" style="rounded=1;whiteSpace=wrap;html=1;absoluteArcSize=1;arcSize=14;strokeWidth=2;" vertex="1" parent="1">
          <mxGeometry x="220" y="605" width="100" height="50" as="geometry" />
        </mxCell>
        <mxCell id="HX41A1APYuWKKBgyzjFO-77" style="edgeStyle=orthogonalEdgeStyle;rounded=0;orthogonalLoop=1;jettySize=auto;html=1;exitX=0.5;exitY=1;exitDx=0;exitDy=0;entryX=0.5;entryY=0;entryDx=0;entryDy=0;" edge="1" parent="1" source="HX41A1APYuWKKBgyzjFO-49" target="HX41A1APYuWKKBgyzjFO-64">
          <mxGeometry relative="1" as="geometry" />
        </mxCell>
        <mxCell id="HX41A1APYuWKKBgyzjFO-49" value="Update" style="rounded=1;whiteSpace=wrap;html=1;absoluteArcSize=1;arcSize=14;strokeWidth=2;" vertex="1" parent="1">
          <mxGeometry x="390" y="605" width="100" height="50" as="geometry" />
        </mxCell>
        <mxCell id="HX41A1APYuWKKBgyzjFO-52" style="edgeStyle=orthogonalEdgeStyle;rounded=0;orthogonalLoop=1;jettySize=auto;html=1;exitX=0.5;exitY=1;exitDx=0;exitDy=0;entryX=0.5;entryY=0;entryDx=0;entryDy=0;" edge="1" parent="1" source="HX41A1APYuWKKBgyzjFO-50" target="HX41A1APYuWKKBgyzjFO-40">
          <mxGeometry relative="1" as="geometry" />
        </mxCell>
        <mxCell id="HX41A1APYuWKKBgyzjFO-101" style="edgeStyle=orthogonalEdgeStyle;rounded=0;orthogonalLoop=1;jettySize=auto;html=1;exitX=1;exitY=0.5;exitDx=0;exitDy=0;entryX=0;entryY=0.5;entryDx=0;entryDy=0;" edge="1" parent="1">
          <mxGeometry relative="1" as="geometry">
            <mxPoint x="490" y="445" as="sourcePoint" />
            <mxPoint x="560" y="445" as="targetPoint" />
          </mxGeometry>
        </mxCell>
        <mxCell id="HX41A1APYuWKKBgyzjFO-50" value="Property event" style="rounded=1;whiteSpace=wrap;html=1;absoluteArcSize=1;arcSize=14;strokeWidth=2;" vertex="1" parent="1">
          <mxGeometry x="390" y="430" width="100" height="50" as="geometry" />
        </mxCell>
        <mxCell id="HX41A1APYuWKKBgyzjFO-54" value="Create domain model" style="text;html=1;strokeColor=none;fillColor=none;align=center;verticalAlign=middle;whiteSpace=wrap;rounded=0;" vertex="1" parent="1">
          <mxGeometry x="440" y="480" width="80" height="30" as="geometry" />
        </mxCell>
        <mxCell id="HX41A1APYuWKKBgyzjFO-59" style="edgeStyle=orthogonalEdgeStyle;rounded=0;orthogonalLoop=1;jettySize=auto;html=1;exitX=0;exitY=0.5;exitDx=0;exitDy=0;" edge="1" parent="1" source="HX41A1APYuWKKBgyzjFO-56" target="HX41A1APYuWKKBgyzjFO-44">
          <mxGeometry relative="1" as="geometry" />
        </mxCell>
        <mxCell id="HX41A1APYuWKKBgyzjFO-56" value="Property updated" style="rounded=1;whiteSpace=wrap;html=1;absoluteArcSize=1;arcSize=14;strokeWidth=2;" vertex="1" parent="1">
          <mxGeometry x="220" y="520" width="100" height="50" as="geometry" />
        </mxCell>
        <mxCell id="HX41A1APYuWKKBgyzjFO-60" value="JSON" style="text;html=1;strokeColor=none;fillColor=none;align=center;verticalAlign=middle;whiteSpace=wrap;rounded=0;" vertex="1" parent="1">
          <mxGeometry x="150" y="540" width="60" height="30" as="geometry" />
        </mxCell>
        <mxCell id="HX41A1APYuWKKBgyzjFO-61" value="DTO" style="text;html=1;strokeColor=none;fillColor=none;align=center;verticalAlign=middle;whiteSpace=wrap;rounded=0;" vertex="1" parent="1">
          <mxGeometry x="320" y="540" width="60" height="30" as="geometry" />
        </mxCell>
        <mxCell id="HX41A1APYuWKKBgyzjFO-62" value="Authorize" style="text;html=1;strokeColor=none;fillColor=none;align=center;verticalAlign=middle;whiteSpace=wrap;rounded=0;" vertex="1" parent="1">
          <mxGeometry x="380" y="410" width="60" height="30" as="geometry" />
        </mxCell>
        <mxCell id="HX41A1APYuWKKBgyzjFO-79" style="edgeStyle=orthogonalEdgeStyle;rounded=0;orthogonalLoop=1;jettySize=auto;html=1;exitX=0.5;exitY=1;exitDx=0;exitDy=0;entryX=0.5;entryY=0;entryDx=0;entryDy=0;" edge="1" parent="1" source="HX41A1APYuWKKBgyzjFO-64" target="HX41A1APYuWKKBgyzjFO-78">
          <mxGeometry relative="1" as="geometry" />
        </mxCell>
        <mxCell id="HX41A1APYuWKKBgyzjFO-64" value="Get" style="rounded=1;whiteSpace=wrap;html=1;absoluteArcSize=1;arcSize=14;strokeWidth=2;" vertex="1" parent="1">
          <mxGeometry x="390" y="690" width="100" height="50" as="geometry" />
        </mxCell>
        <mxCell id="HX41A1APYuWKKBgyzjFO-65" style="edgeStyle=orthogonalEdgeStyle;rounded=0;orthogonalLoop=1;jettySize=auto;html=1;exitX=1;exitY=0.25;exitDx=0;exitDy=0;entryX=0;entryY=0.25;entryDx=0;entryDy=0;" edge="1" parent="1" target="HX41A1APYuWKKBgyzjFO-68">
          <mxGeometry relative="1" as="geometry">
            <mxPoint x="490" y="702.5" as="sourcePoint" />
          </mxGeometry>
        </mxCell>
        <mxCell id="HX41A1APYuWKKBgyzjFO-66" style="edgeStyle=orthogonalEdgeStyle;rounded=0;orthogonalLoop=1;jettySize=auto;html=1;exitX=1;exitY=0.25;exitDx=0;exitDy=0;entryX=0;entryY=0.25;entryDx=0;entryDy=0;" edge="1" parent="1" source="HX41A1APYuWKKBgyzjFO-68" target="HX41A1APYuWKKBgyzjFO-70">
          <mxGeometry relative="1" as="geometry" />
        </mxCell>
        <mxCell id="HX41A1APYuWKKBgyzjFO-67" style="edgeStyle=orthogonalEdgeStyle;rounded=0;orthogonalLoop=1;jettySize=auto;html=1;exitX=0;exitY=0.75;exitDx=0;exitDy=0;entryX=1;entryY=0.75;entryDx=0;entryDy=0;" edge="1" parent="1" source="HX41A1APYuWKKBgyzjFO-68">
          <mxGeometry relative="1" as="geometry">
            <mxPoint x="490" y="727.5" as="targetPoint" />
          </mxGeometry>
        </mxCell>
        <mxCell id="HX41A1APYuWKKBgyzjFO-68" value="Get" style="rounded=1;whiteSpace=wrap;html=1;absoluteArcSize=1;arcSize=14;strokeWidth=2;" vertex="1" parent="1">
          <mxGeometry x="560" y="690" width="100" height="50" as="geometry" />
        </mxCell>
        <mxCell id="HX41A1APYuWKKBgyzjFO-69" style="edgeStyle=orthogonalEdgeStyle;rounded=0;orthogonalLoop=1;jettySize=auto;html=1;exitX=0;exitY=0.75;exitDx=0;exitDy=0;entryX=1;entryY=0.75;entryDx=0;entryDy=0;" edge="1" parent="1" source="HX41A1APYuWKKBgyzjFO-70" target="HX41A1APYuWKKBgyzjFO-68">
          <mxGeometry relative="1" as="geometry" />
        </mxCell>
        <mxCell id="HX41A1APYuWKKBgyzjFO-70" value="Get" style="rounded=1;whiteSpace=wrap;html=1;absoluteArcSize=1;arcSize=14;strokeWidth=2;" vertex="1" parent="1">
          <mxGeometry x="730" y="690" width="100" height="50" as="geometry" />
        </mxCell>
        <mxCell id="HX41A1APYuWKKBgyzjFO-71" style="edgeStyle=orthogonalEdgeStyle;rounded=0;orthogonalLoop=1;jettySize=auto;html=1;exitX=1;exitY=0.25;exitDx=0;exitDy=0;" edge="1" parent="1" source="HX41A1APYuWKKBgyzjFO-70">
          <mxGeometry relative="1" as="geometry">
            <mxPoint x="830" y="730" as="targetPoint" />
            <Array as="points">
              <mxPoint x="950" y="703" />
              <mxPoint x="950" y="730" />
            </Array>
          </mxGeometry>
        </mxCell>
        <mxCell id="HX41A1APYuWKKBgyzjFO-72" value="Data rows" style="text;html=1;strokeColor=none;fillColor=none;align=center;verticalAlign=middle;whiteSpace=wrap;rounded=0;" vertex="1" parent="1">
          <mxGeometry x="850" y="730" width="60" height="30" as="geometry" />
        </mxCell>
        <mxCell id="HX41A1APYuWKKBgyzjFO-73" value="Entity" style="text;html=1;strokeColor=none;fillColor=none;align=center;verticalAlign=middle;whiteSpace=wrap;rounded=0;" vertex="1" parent="1">
          <mxGeometry x="660" y="730" width="60" height="30" as="geometry" />
        </mxCell>
        <mxCell id="HX41A1APYuWKKBgyzjFO-74" value="Domain model" style="text;html=1;strokeColor=none;fillColor=none;align=center;verticalAlign=middle;whiteSpace=wrap;rounded=0;" vertex="1" parent="1">
          <mxGeometry x="490" y="730" width="60" height="30" as="geometry" />
        </mxCell>
        <mxCell id="HX41A1APYuWKKBgyzjFO-75" value="Id" style="text;html=1;strokeColor=none;fillColor=none;align=center;verticalAlign=middle;whiteSpace=wrap;rounded=0;" vertex="1" parent="1">
          <mxGeometry x="660" y="680" width="60" height="30" as="geometry" />
        </mxCell>
        <mxCell id="HX41A1APYuWKKBgyzjFO-76" value="SQL" style="text;html=1;strokeColor=none;fillColor=none;align=center;verticalAlign=middle;whiteSpace=wrap;rounded=0;" vertex="1" parent="1">
          <mxGeometry x="830" y="680" width="60" height="30" as="geometry" />
        </mxCell>
        <mxCell id="HX41A1APYuWKKBgyzjFO-85" style="edgeStyle=orthogonalEdgeStyle;rounded=0;orthogonalLoop=1;jettySize=auto;html=1;exitX=1;exitY=0.25;exitDx=0;exitDy=0;entryX=0;entryY=0.25;entryDx=0;entryDy=0;" edge="1" parent="1" source="HX41A1APYuWKKBgyzjFO-78" target="HX41A1APYuWKKBgyzjFO-82">
          <mxGeometry relative="1" as="geometry" />
        </mxCell>
        <mxCell id="HX41A1APYuWKKBgyzjFO-95" style="edgeStyle=orthogonalEdgeStyle;rounded=0;orthogonalLoop=1;jettySize=auto;html=1;exitX=0;exitY=0.75;exitDx=0;exitDy=0;entryX=1;entryY=0.75;entryDx=0;entryDy=0;" edge="1" parent="1" source="HX41A1APYuWKKBgyzjFO-78" target="HX41A1APYuWKKBgyzjFO-94">
          <mxGeometry relative="1" as="geometry" />
        </mxCell>
        <mxCell id="HX41A1APYuWKKBgyzjFO-78" value="Modify model with validation" style="rounded=1;whiteSpace=wrap;html=1;absoluteArcSize=1;arcSize=14;strokeWidth=2;" vertex="1" parent="1">
          <mxGeometry x="390" y="770" width="100" height="50" as="geometry" />
        </mxCell>
        <mxCell id="HX41A1APYuWKKBgyzjFO-86" style="edgeStyle=orthogonalEdgeStyle;rounded=0;orthogonalLoop=1;jettySize=auto;html=1;exitX=1;exitY=0.25;exitDx=0;exitDy=0;entryX=0;entryY=0.25;entryDx=0;entryDy=0;" edge="1" parent="1" source="HX41A1APYuWKKBgyzjFO-82" target="HX41A1APYuWKKBgyzjFO-83">
          <mxGeometry relative="1" as="geometry" />
        </mxCell>
        <mxCell id="HX41A1APYuWKKBgyzjFO-93" style="edgeStyle=orthogonalEdgeStyle;rounded=0;orthogonalLoop=1;jettySize=auto;html=1;exitX=0;exitY=0.75;exitDx=0;exitDy=0;entryX=1;entryY=0.75;entryDx=0;entryDy=0;" edge="1" parent="1" source="HX41A1APYuWKKBgyzjFO-82" target="HX41A1APYuWKKBgyzjFO-78">
          <mxGeometry relative="1" as="geometry" />
        </mxCell>
        <mxCell id="HX41A1APYuWKKBgyzjFO-82" value="Update" style="rounded=1;whiteSpace=wrap;html=1;absoluteArcSize=1;arcSize=14;strokeWidth=2;" vertex="1" parent="1">
          <mxGeometry x="560" y="770" width="100" height="50" as="geometry" />
        </mxCell>
        <mxCell id="HX41A1APYuWKKBgyzjFO-90" style="edgeStyle=orthogonalEdgeStyle;rounded=0;orthogonalLoop=1;jettySize=auto;html=1;exitX=0;exitY=0.75;exitDx=0;exitDy=0;entryX=1;entryY=0.75;entryDx=0;entryDy=0;" edge="1" parent="1" source="HX41A1APYuWKKBgyzjFO-83" target="HX41A1APYuWKKBgyzjFO-82">
          <mxGeometry relative="1" as="geometry" />
        </mxCell>
        <mxCell id="HX41A1APYuWKKBgyzjFO-83" value="Update" style="rounded=1;whiteSpace=wrap;html=1;absoluteArcSize=1;arcSize=14;strokeWidth=2;" vertex="1" parent="1">
          <mxGeometry x="730" y="770" width="100" height="50" as="geometry" />
        </mxCell>
        <mxCell id="HX41A1APYuWKKBgyzjFO-87" style="edgeStyle=orthogonalEdgeStyle;rounded=0;orthogonalLoop=1;jettySize=auto;html=1;exitX=1;exitY=0.25;exitDx=0;exitDy=0;" edge="1" parent="1">
          <mxGeometry relative="1" as="geometry">
            <mxPoint x="830" y="810" as="targetPoint" />
            <Array as="points">
              <mxPoint x="950" y="783" />
              <mxPoint x="950" y="810" />
            </Array>
            <mxPoint x="830" y="782.5" as="sourcePoint" />
          </mxGeometry>
        </mxCell>
        <mxCell id="HX41A1APYuWKKBgyzjFO-88" value="Rows affected" style="text;html=1;strokeColor=none;fillColor=none;align=center;verticalAlign=middle;whiteSpace=wrap;rounded=0;" vertex="1" parent="1">
          <mxGeometry x="850" y="810" width="60" height="30" as="geometry" />
        </mxCell>
        <mxCell id="HX41A1APYuWKKBgyzjFO-89" value="SQL" style="text;html=1;strokeColor=none;fillColor=none;align=center;verticalAlign=middle;whiteSpace=wrap;rounded=0;" vertex="1" parent="1">
          <mxGeometry x="830" y="760" width="60" height="30" as="geometry" />
        </mxCell>
        <mxCell id="HX41A1APYuWKKBgyzjFO-91" value="Rows affected" style="text;html=1;strokeColor=none;fillColor=none;align=center;verticalAlign=middle;whiteSpace=wrap;rounded=0;" vertex="1" parent="1">
          <mxGeometry x="660" y="810" width="60" height="30" as="geometry" />
        </mxCell>
        <mxCell id="HX41A1APYuWKKBgyzjFO-92" value="Operation result" style="text;html=1;strokeColor=none;fillColor=none;align=center;verticalAlign=middle;whiteSpace=wrap;rounded=0;" vertex="1" parent="1">
          <mxGeometry x="490" y="810" width="60" height="30" as="geometry" />
        </mxCell>
        <mxCell id="HX41A1APYuWKKBgyzjFO-98" style="edgeStyle=orthogonalEdgeStyle;rounded=0;orthogonalLoop=1;jettySize=auto;html=1;exitX=0;exitY=0.75;exitDx=0;exitDy=0;entryX=1;entryY=0.75;entryDx=0;entryDy=0;" edge="1" parent="1" source="HX41A1APYuWKKBgyzjFO-94" target="HX41A1APYuWKKBgyzjFO-97">
          <mxGeometry relative="1" as="geometry" />
        </mxCell>
        <mxCell id="HX41A1APYuWKKBgyzjFO-94" value="Updated" style="rounded=1;whiteSpace=wrap;html=1;absoluteArcSize=1;arcSize=14;strokeWidth=2;" vertex="1" parent="1">
          <mxGeometry x="220" y="770" width="100" height="50" as="geometry" />
        </mxCell>
        <mxCell id="HX41A1APYuWKKBgyzjFO-96" value="Result with DTO" style="text;html=1;strokeColor=none;fillColor=none;align=center;verticalAlign=middle;whiteSpace=wrap;rounded=0;" vertex="1" parent="1">
          <mxGeometry x="320" y="810" width="60" height="30" as="geometry" />
        </mxCell>
        <mxCell id="HX41A1APYuWKKBgyzjFO-97" value="Render layout and show message" style="rounded=1;whiteSpace=wrap;html=1;absoluteArcSize=1;arcSize=14;strokeWidth=2;" vertex="1" parent="1">
          <mxGeometry x="50" y="770" width="100" height="50" as="geometry" />
        </mxCell>
        <mxCell id="HX41A1APYuWKKBgyzjFO-99" value="JSON" style="text;html=1;strokeColor=none;fillColor=none;align=center;verticalAlign=middle;whiteSpace=wrap;rounded=0;" vertex="1" parent="1">
          <mxGeometry x="150" y="810" width="60" height="30" as="geometry" />
        </mxCell>
        <mxCell id="HX41A1APYuWKKBgyzjFO-104" style="edgeStyle=orthogonalEdgeStyle;rounded=0;orthogonalLoop=1;jettySize=auto;html=1;exitX=0.5;exitY=1;exitDx=0;exitDy=0;entryX=1;entryY=0.5;entryDx=0;entryDy=0;" edge="1" parent="1" source="HX41A1APYuWKKBgyzjFO-100" target="HX41A1APYuWKKBgyzjFO-40">
          <mxGeometry relative="1" as="geometry" />
        </mxCell>
        <mxCell id="HX41A1APYuWKKBgyzjFO-100" value="Property event" style="rounded=1;whiteSpace=wrap;html=1;absoluteArcSize=1;arcSize=14;strokeWidth=2;" vertex="1" parent="1">
          <mxGeometry x="560" y="430" width="100" height="50" as="geometry" />
        </mxCell>
        <mxCell id="HX41A1APYuWKKBgyzjFO-102" value="Need domain logic" style="text;html=1;strokeColor=none;fillColor=none;align=center;verticalAlign=middle;whiteSpace=wrap;rounded=0;" vertex="1" parent="1">
          <mxGeometry x="490" y="410" width="80" height="30" as="geometry" />
        </mxCell>
        <mxCell id="HX41A1APYuWKKBgyzjFO-105" value="Authorize" style="text;html=1;strokeColor=none;fillColor=none;align=center;verticalAlign=middle;whiteSpace=wrap;rounded=0;" vertex="1" parent="1">
          <mxGeometry x="380" y="580" width="60" height="30" as="geometry" />
        </mxCell>
        <mxCell id="HX41A1APYuWKKBgyzjFO-112" style="edgeStyle=orthogonalEdgeStyle;rounded=0;orthogonalLoop=1;jettySize=auto;html=1;exitX=1;exitY=0.25;exitDx=0;exitDy=0;entryX=0;entryY=0.25;entryDx=0;entryDy=0;" edge="1" parent="1" source="HX41A1APYuWKKBgyzjFO-108" target="HX41A1APYuWKKBgyzjFO-110">
          <mxGeometry relative="1" as="geometry" />
        </mxCell>
        <mxCell id="HX41A1APYuWKKBgyzjFO-120" style="edgeStyle=orthogonalEdgeStyle;rounded=0;orthogonalLoop=1;jettySize=auto;html=1;exitX=0.5;exitY=1;exitDx=0;exitDy=0;" edge="1" parent="1" source="HX41A1APYuWKKBgyzjFO-108" target="HX41A1APYuWKKBgyzjFO-119">
          <mxGeometry relative="1" as="geometry" />
        </mxCell>
        <mxCell id="HX41A1APYuWKKBgyzjFO-108" value="Add new" style="rounded=1;whiteSpace=wrap;html=1;absoluteArcSize=1;arcSize=14;strokeWidth=2;" vertex="1" parent="1">
          <mxGeometry x="50" y="870" width="100" height="50" as="geometry" />
        </mxCell>
        <mxCell id="HX41A1APYuWKKBgyzjFO-113" style="edgeStyle=orthogonalEdgeStyle;rounded=0;orthogonalLoop=1;jettySize=auto;html=1;exitX=1;exitY=0.25;exitDx=0;exitDy=0;entryX=0;entryY=0.25;entryDx=0;entryDy=0;" edge="1" parent="1" source="HX41A1APYuWKKBgyzjFO-110" target="HX41A1APYuWKKBgyzjFO-111">
          <mxGeometry relative="1" as="geometry" />
        </mxCell>
        <mxCell id="HX41A1APYuWKKBgyzjFO-118" style="edgeStyle=orthogonalEdgeStyle;rounded=0;orthogonalLoop=1;jettySize=auto;html=1;exitX=0;exitY=0.75;exitDx=0;exitDy=0;entryX=1;entryY=0.75;entryDx=0;entryDy=0;" edge="1" parent="1" source="HX41A1APYuWKKBgyzjFO-110" target="HX41A1APYuWKKBgyzjFO-108">
          <mxGeometry relative="1" as="geometry" />
        </mxCell>
        <mxCell id="HX41A1APYuWKKBgyzjFO-110" value="Create" style="rounded=1;whiteSpace=wrap;html=1;absoluteArcSize=1;arcSize=14;strokeWidth=2;" vertex="1" parent="1">
          <mxGeometry x="220" y="870" width="100" height="50" as="geometry" />
        </mxCell>
        <mxCell id="HX41A1APYuWKKBgyzjFO-115" style="edgeStyle=orthogonalEdgeStyle;rounded=0;orthogonalLoop=1;jettySize=auto;html=1;exitX=0;exitY=0.75;exitDx=0;exitDy=0;entryX=1;entryY=0.75;entryDx=0;entryDy=0;" edge="1" parent="1" source="HX41A1APYuWKKBgyzjFO-111" target="HX41A1APYuWKKBgyzjFO-110">
          <mxGeometry relative="1" as="geometry" />
        </mxCell>
        <mxCell id="HX41A1APYuWKKBgyzjFO-111" value="Create model with initial value" style="rounded=1;whiteSpace=wrap;html=1;absoluteArcSize=1;arcSize=14;strokeWidth=2;" vertex="1" parent="1">
          <mxGeometry x="390" y="870" width="100" height="50" as="geometry" />
        </mxCell>
        <mxCell id="HX41A1APYuWKKBgyzjFO-114" value="Authorize" style="text;html=1;strokeColor=none;fillColor=none;align=center;verticalAlign=middle;whiteSpace=wrap;rounded=0;" vertex="1" parent="1">
          <mxGeometry x="380" y="850" width="60" height="30" as="geometry" />
        </mxCell>
        <mxCell id="HX41A1APYuWKKBgyzjFO-116" value="DTO" style="text;html=1;strokeColor=none;fillColor=none;align=center;verticalAlign=middle;whiteSpace=wrap;rounded=0;" vertex="1" parent="1">
          <mxGeometry x="320" y="910" width="60" height="30" as="geometry" />
        </mxCell>
        <mxCell id="HX41A1APYuWKKBgyzjFO-117" value="JSON" style="text;html=1;strokeColor=none;fillColor=none;align=center;verticalAlign=middle;whiteSpace=wrap;rounded=0;" vertex="1" parent="1">
          <mxGeometry x="150" y="910" width="60" height="30" as="geometry" />
        </mxCell>
        <mxCell id="HX41A1APYuWKKBgyzjFO-127" style="edgeStyle=orthogonalEdgeStyle;rounded=0;orthogonalLoop=1;jettySize=auto;html=1;exitX=0.5;exitY=1;exitDx=0;exitDy=0;entryX=0.5;entryY=0;entryDx=0;entryDy=0;" edge="1" parent="1" source="HX41A1APYuWKKBgyzjFO-119" target="HX41A1APYuWKKBgyzjFO-122">
          <mxGeometry relative="1" as="geometry" />
        </mxCell>
        <mxCell id="HX41A1APYuWKKBgyzjFO-119" value="Render Layout" style="rounded=1;whiteSpace=wrap;html=1;absoluteArcSize=1;arcSize=14;strokeWidth=2;" vertex="1" parent="1">
          <mxGeometry x="50" y="950" width="100" height="50" as="geometry" />
        </mxCell>
        <mxCell id="HX41A1APYuWKKBgyzjFO-121" style="edgeStyle=orthogonalEdgeStyle;rounded=0;orthogonalLoop=1;jettySize=auto;html=1;exitX=1;exitY=0.5;exitDx=0;exitDy=0;entryX=0;entryY=0.5;entryDx=0;entryDy=0;" edge="1" parent="1" source="HX41A1APYuWKKBgyzjFO-122" target="HX41A1APYuWKKBgyzjFO-124">
          <mxGeometry relative="1" as="geometry" />
        </mxCell>
        <mxCell id="HX41A1APYuWKKBgyzjFO-122" value="Save changes" style="rounded=1;whiteSpace=wrap;html=1;absoluteArcSize=1;arcSize=14;strokeWidth=2;" vertex="1" parent="1">
          <mxGeometry x="50" y="1030" width="100" height="50" as="geometry" />
        </mxCell>
        <mxCell id="HX41A1APYuWKKBgyzjFO-123" style="edgeStyle=orthogonalEdgeStyle;rounded=0;orthogonalLoop=1;jettySize=auto;html=1;exitX=1;exitY=0.5;exitDx=0;exitDy=0;" edge="1" parent="1" source="HX41A1APYuWKKBgyzjFO-124" target="HX41A1APYuWKKBgyzjFO-126">
          <mxGeometry relative="1" as="geometry" />
        </mxCell>
        <mxCell id="HX41A1APYuWKKBgyzjFO-124" value="Add" style="rounded=1;whiteSpace=wrap;html=1;absoluteArcSize=1;arcSize=14;strokeWidth=2;" vertex="1" parent="1">
          <mxGeometry x="220" y="1030" width="100" height="50" as="geometry" />
        </mxCell>
        <mxCell id="HX41A1APYuWKKBgyzjFO-147" style="edgeStyle=orthogonalEdgeStyle;rounded=0;orthogonalLoop=1;jettySize=auto;html=1;exitX=0.5;exitY=1;exitDx=0;exitDy=0;" edge="1" parent="1" source="HX41A1APYuWKKBgyzjFO-126" target="HX41A1APYuWKKBgyzjFO-131">
          <mxGeometry relative="1" as="geometry" />
        </mxCell>
        <mxCell id="HX41A1APYuWKKBgyzjFO-126" value="Add" style="rounded=1;whiteSpace=wrap;html=1;absoluteArcSize=1;arcSize=14;strokeWidth=2;" vertex="1" parent="1">
          <mxGeometry x="390" y="1030" width="100" height="50" as="geometry" />
        </mxCell>
        <mxCell id="HX41A1APYuWKKBgyzjFO-128" value="Authorize" style="text;html=1;strokeColor=none;fillColor=none;align=center;verticalAlign=middle;whiteSpace=wrap;rounded=0;" vertex="1" parent="1">
          <mxGeometry x="380" y="1010" width="60" height="30" as="geometry" />
        </mxCell>
        <mxCell id="HX41A1APYuWKKBgyzjFO-129" style="edgeStyle=orthogonalEdgeStyle;rounded=0;orthogonalLoop=1;jettySize=auto;html=1;exitX=1;exitY=0.25;exitDx=0;exitDy=0;entryX=0;entryY=0.25;entryDx=0;entryDy=0;" edge="1" parent="1" source="HX41A1APYuWKKBgyzjFO-131" target="HX41A1APYuWKKBgyzjFO-134">
          <mxGeometry relative="1" as="geometry" />
        </mxCell>
        <mxCell id="HX41A1APYuWKKBgyzjFO-130" style="edgeStyle=orthogonalEdgeStyle;rounded=0;orthogonalLoop=1;jettySize=auto;html=1;exitX=0;exitY=0.75;exitDx=0;exitDy=0;entryX=1;entryY=0.75;entryDx=0;entryDy=0;" edge="1" parent="1" source="HX41A1APYuWKKBgyzjFO-131" target="HX41A1APYuWKKBgyzjFO-143">
          <mxGeometry relative="1" as="geometry" />
        </mxCell>
        <mxCell id="HX41A1APYuWKKBgyzjFO-131" value="New model with validation" style="rounded=1;whiteSpace=wrap;html=1;absoluteArcSize=1;arcSize=14;strokeWidth=2;" vertex="1" parent="1">
          <mxGeometry x="390" y="1120" width="100" height="50" as="geometry" />
        </mxCell>
        <mxCell id="HX41A1APYuWKKBgyzjFO-132" style="edgeStyle=orthogonalEdgeStyle;rounded=0;orthogonalLoop=1;jettySize=auto;html=1;exitX=1;exitY=0.25;exitDx=0;exitDy=0;entryX=0;entryY=0.25;entryDx=0;entryDy=0;" edge="1" parent="1" source="HX41A1APYuWKKBgyzjFO-134" target="HX41A1APYuWKKBgyzjFO-136">
          <mxGeometry relative="1" as="geometry" />
        </mxCell>
        <mxCell id="HX41A1APYuWKKBgyzjFO-133" style="edgeStyle=orthogonalEdgeStyle;rounded=0;orthogonalLoop=1;jettySize=auto;html=1;exitX=0;exitY=0.75;exitDx=0;exitDy=0;entryX=1;entryY=0.75;entryDx=0;entryDy=0;" edge="1" parent="1" source="HX41A1APYuWKKBgyzjFO-134" target="HX41A1APYuWKKBgyzjFO-131">
          <mxGeometry relative="1" as="geometry" />
        </mxCell>
        <mxCell id="HX41A1APYuWKKBgyzjFO-134" value="Add" style="rounded=1;whiteSpace=wrap;html=1;absoluteArcSize=1;arcSize=14;strokeWidth=2;" vertex="1" parent="1">
          <mxGeometry x="560" y="1120" width="100" height="50" as="geometry" />
        </mxCell>
        <mxCell id="HX41A1APYuWKKBgyzjFO-135" style="edgeStyle=orthogonalEdgeStyle;rounded=0;orthogonalLoop=1;jettySize=auto;html=1;exitX=0;exitY=0.75;exitDx=0;exitDy=0;entryX=1;entryY=0.75;entryDx=0;entryDy=0;" edge="1" parent="1" source="HX41A1APYuWKKBgyzjFO-136" target="HX41A1APYuWKKBgyzjFO-134">
          <mxGeometry relative="1" as="geometry" />
        </mxCell>
        <mxCell id="HX41A1APYuWKKBgyzjFO-136" value="Insert" style="rounded=1;whiteSpace=wrap;html=1;absoluteArcSize=1;arcSize=14;strokeWidth=2;" vertex="1" parent="1">
          <mxGeometry x="730" y="1120" width="100" height="50" as="geometry" />
        </mxCell>
        <mxCell id="HX41A1APYuWKKBgyzjFO-137" style="edgeStyle=orthogonalEdgeStyle;rounded=0;orthogonalLoop=1;jettySize=auto;html=1;exitX=1;exitY=0.25;exitDx=0;exitDy=0;" edge="1" parent="1">
          <mxGeometry relative="1" as="geometry">
            <mxPoint x="830" y="1160" as="targetPoint" />
            <Array as="points">
              <mxPoint x="950" y="1133" />
              <mxPoint x="950" y="1160" />
            </Array>
            <mxPoint x="830" y="1132.5" as="sourcePoint" />
          </mxGeometry>
        </mxCell>
        <mxCell id="HX41A1APYuWKKBgyzjFO-138" value="Rows affected" style="text;html=1;strokeColor=none;fillColor=none;align=center;verticalAlign=middle;whiteSpace=wrap;rounded=0;" vertex="1" parent="1">
          <mxGeometry x="850" y="1160" width="60" height="30" as="geometry" />
        </mxCell>
        <mxCell id="HX41A1APYuWKKBgyzjFO-139" value="SQL" style="text;html=1;strokeColor=none;fillColor=none;align=center;verticalAlign=middle;whiteSpace=wrap;rounded=0;" vertex="1" parent="1">
          <mxGeometry x="830" y="1110" width="60" height="30" as="geometry" />
        </mxCell>
        <mxCell id="HX41A1APYuWKKBgyzjFO-140" value="Rows affected" style="text;html=1;strokeColor=none;fillColor=none;align=center;verticalAlign=middle;whiteSpace=wrap;rounded=0;" vertex="1" parent="1">
          <mxGeometry x="660" y="1160" width="60" height="30" as="geometry" />
        </mxCell>
        <mxCell id="HX41A1APYuWKKBgyzjFO-141" value="Operation result" style="text;html=1;strokeColor=none;fillColor=none;align=center;verticalAlign=middle;whiteSpace=wrap;rounded=0;" vertex="1" parent="1">
          <mxGeometry x="490" y="1160" width="60" height="30" as="geometry" />
        </mxCell>
        <mxCell id="HX41A1APYuWKKBgyzjFO-142" style="edgeStyle=orthogonalEdgeStyle;rounded=0;orthogonalLoop=1;jettySize=auto;html=1;exitX=0;exitY=0.75;exitDx=0;exitDy=0;entryX=1;entryY=0.75;entryDx=0;entryDy=0;" edge="1" parent="1" source="HX41A1APYuWKKBgyzjFO-143" target="HX41A1APYuWKKBgyzjFO-145">
          <mxGeometry relative="1" as="geometry" />
        </mxCell>
        <mxCell id="HX41A1APYuWKKBgyzjFO-143" value="Added" style="rounded=1;whiteSpace=wrap;html=1;absoluteArcSize=1;arcSize=14;strokeWidth=2;" vertex="1" parent="1">
          <mxGeometry x="220" y="1120" width="100" height="50" as="geometry" />
        </mxCell>
        <mxCell id="HX41A1APYuWKKBgyzjFO-144" value="Result with DTO" style="text;html=1;strokeColor=none;fillColor=none;align=center;verticalAlign=middle;whiteSpace=wrap;rounded=0;" vertex="1" parent="1">
          <mxGeometry x="320" y="1160" width="60" height="30" as="geometry" />
        </mxCell>
        <mxCell id="HX41A1APYuWKKBgyzjFO-145" value="Render layout and show message" style="rounded=1;whiteSpace=wrap;html=1;absoluteArcSize=1;arcSize=14;strokeWidth=2;" vertex="1" parent="1">
          <mxGeometry x="50" y="1120" width="100" height="50" as="geometry" />
        </mxCell>
        <mxCell id="HX41A1APYuWKKBgyzjFO-146" value="JSON" style="text;html=1;strokeColor=none;fillColor=none;align=center;verticalAlign=middle;whiteSpace=wrap;rounded=0;" vertex="1" parent="1">
          <mxGeometry x="150" y="1160" width="60" height="30" as="geometry" />
        </mxCell>
        <mxCell id="HX41A1APYuWKKBgyzjFO-148" value="Create model" style="text;html=1;strokeColor=none;fillColor=none;align=center;verticalAlign=middle;whiteSpace=wrap;rounded=0;" vertex="1" parent="1">
          <mxGeometry x="150" y="1020" width="60" height="30" as="geometry" />
        </mxCell>
        <mxCell id="HX41A1APYuWKKBgyzjFO-149" value="Update model" style="text;html=1;strokeColor=none;fillColor=none;align=center;verticalAlign=middle;whiteSpace=wrap;rounded=0;" vertex="1" parent="1">
          <mxGeometry x="150" y="600" width="60" height="30" as="geometry" />
        </mxCell>
        <mxCell id="HX41A1APYuWKKBgyzjFO-150" value="DTO" style="text;html=1;strokeColor=none;fillColor=none;align=center;verticalAlign=middle;whiteSpace=wrap;rounded=0;" vertex="1" parent="1">
          <mxGeometry x="150" y="430" width="60" height="30" as="geometry" />
        </mxCell>
        <mxCell id="HX41A1APYuWKKBgyzjFO-153" style="edgeStyle=orthogonalEdgeStyle;rounded=0;orthogonalLoop=1;jettySize=auto;html=1;exitX=0.5;exitY=1;exitDx=0;exitDy=0;entryX=0.5;entryY=0;entryDx=0;entryDy=0;" edge="1" parent="1" source="HX41A1APYuWKKBgyzjFO-151" target="HX41A1APYuWKKBgyzjFO-26">
          <mxGeometry relative="1" as="geometry" />
        </mxCell>
        <mxCell id="HX41A1APYuWKKBgyzjFO-175" style="edgeStyle=orthogonalEdgeStyle;rounded=0;orthogonalLoop=1;jettySize=auto;html=1;exitX=1;exitY=0.25;exitDx=0;exitDy=0;entryX=0;entryY=0.25;entryDx=0;entryDy=0;" edge="1" parent="1" source="HX41A1APYuWKKBgyzjFO-151" target="HX41A1APYuWKKBgyzjFO-155">
          <mxGeometry relative="1" as="geometry" />
        </mxCell>
        <mxCell id="HX41A1APYuWKKBgyzjFO-151" value="Load all select options" style="rounded=1;whiteSpace=wrap;html=1;absoluteArcSize=1;arcSize=14;strokeWidth=2;" vertex="1" parent="1">
          <mxGeometry x="50" y="270" width="100" height="50" as="geometry" />
        </mxCell>
        <mxCell id="HX41A1APYuWKKBgyzjFO-154" style="edgeStyle=orthogonalEdgeStyle;rounded=0;orthogonalLoop=1;jettySize=auto;html=1;exitX=1;exitY=0.25;exitDx=0;exitDy=0;entryX=0;entryY=0.25;entryDx=0;entryDy=0;" edge="1" parent="1" source="HX41A1APYuWKKBgyzjFO-155" target="HX41A1APYuWKKBgyzjFO-158">
          <mxGeometry relative="1" as="geometry" />
        </mxCell>
        <mxCell id="HX41A1APYuWKKBgyzjFO-176" style="edgeStyle=orthogonalEdgeStyle;rounded=0;orthogonalLoop=1;jettySize=auto;html=1;exitX=0;exitY=0.75;exitDx=0;exitDy=0;entryX=1;entryY=0.75;entryDx=0;entryDy=0;" edge="1" parent="1" source="HX41A1APYuWKKBgyzjFO-155" target="HX41A1APYuWKKBgyzjFO-151">
          <mxGeometry relative="1" as="geometry" />
        </mxCell>
        <mxCell id="HX41A1APYuWKKBgyzjFO-155" value="List options" style="rounded=1;whiteSpace=wrap;html=1;absoluteArcSize=1;arcSize=14;strokeWidth=2;" vertex="1" parent="1">
          <mxGeometry x="220" y="270" width="100" height="50" as="geometry" />
        </mxCell>
        <mxCell id="HX41A1APYuWKKBgyzjFO-157" style="edgeStyle=orthogonalEdgeStyle;rounded=0;orthogonalLoop=1;jettySize=auto;html=1;exitX=0;exitY=0.75;exitDx=0;exitDy=0;entryX=1;entryY=0.75;entryDx=0;entryDy=0;" edge="1" parent="1" source="HX41A1APYuWKKBgyzjFO-158" target="HX41A1APYuWKKBgyzjFO-155">
          <mxGeometry relative="1" as="geometry" />
        </mxCell>
        <mxCell id="HX41A1APYuWKKBgyzjFO-173" style="edgeStyle=orthogonalEdgeStyle;rounded=0;orthogonalLoop=1;jettySize=auto;html=1;exitX=1;exitY=0.25;exitDx=0;exitDy=0;entryX=0;entryY=0.25;entryDx=0;entryDy=0;" edge="1" parent="1" source="HX41A1APYuWKKBgyzjFO-158" target="HX41A1APYuWKKBgyzjFO-163">
          <mxGeometry relative="1" as="geometry" />
        </mxCell>
        <mxCell id="HX41A1APYuWKKBgyzjFO-158" value="List options" style="rounded=1;whiteSpace=wrap;html=1;absoluteArcSize=1;arcSize=14;strokeWidth=2;" vertex="1" parent="1">
          <mxGeometry x="390" y="270" width="100" height="50" as="geometry" />
        </mxCell>
        <mxCell id="HX41A1APYuWKKBgyzjFO-174" style="edgeStyle=orthogonalEdgeStyle;rounded=0;orthogonalLoop=1;jettySize=auto;html=1;exitX=0;exitY=0.75;exitDx=0;exitDy=0;entryX=1;entryY=0.75;entryDx=0;entryDy=0;" edge="1" parent="1" source="HX41A1APYuWKKBgyzjFO-163" target="HX41A1APYuWKKBgyzjFO-158">
          <mxGeometry relative="1" as="geometry" />
        </mxCell>
        <mxCell id="HX41A1APYuWKKBgyzjFO-163" value="List options" style="rounded=1;whiteSpace=wrap;html=1;absoluteArcSize=1;arcSize=14;strokeWidth=2;" vertex="1" parent="1">
          <mxGeometry x="730" y="270" width="100" height="50" as="geometry" />
        </mxCell>
        <mxCell id="HX41A1APYuWKKBgyzjFO-164" style="edgeStyle=orthogonalEdgeStyle;rounded=0;orthogonalLoop=1;jettySize=auto;html=1;exitX=1;exitY=0.25;exitDx=0;exitDy=0;" edge="1" parent="1" source="HX41A1APYuWKKBgyzjFO-163">
          <mxGeometry relative="1" as="geometry">
            <mxPoint x="830" y="310" as="targetPoint" />
            <Array as="points">
              <mxPoint x="950" y="283" />
              <mxPoint x="950" y="310" />
            </Array>
          </mxGeometry>
        </mxCell>
        <mxCell id="HX41A1APYuWKKBgyzjFO-165" value="Data rows" style="text;html=1;strokeColor=none;fillColor=none;align=center;verticalAlign=middle;whiteSpace=wrap;rounded=0;" vertex="1" parent="1">
          <mxGeometry x="850" y="310" width="60" height="30" as="geometry" />
        </mxCell>
        <mxCell id="HX41A1APYuWKKBgyzjFO-168" value="DTO" style="text;html=1;strokeColor=none;fillColor=none;align=center;verticalAlign=middle;whiteSpace=wrap;rounded=0;" vertex="1" parent="1">
          <mxGeometry x="320" y="310" width="60" height="30" as="geometry" />
        </mxCell>
        <mxCell id="HX41A1APYuWKKBgyzjFO-170" value="SQL" style="text;html=1;strokeColor=none;fillColor=none;align=center;verticalAlign=middle;whiteSpace=wrap;rounded=0;" vertex="1" parent="1">
          <mxGeometry x="830" y="260" width="60" height="30" as="geometry" />
        </mxCell>
        <mxCell id="HX41A1APYuWKKBgyzjFO-172" value="Selected value, Identity" style="text;html=1;strokeColor=none;fillColor=none;align=center;verticalAlign=middle;whiteSpace=wrap;rounded=0;" vertex="1" parent="1">
          <mxGeometry x="310" y="260" width="90" height="30" as="geometry" />
        </mxCell>
      </root>
    </mxGraphModel>
  </diagram>
</mxfile>
